<svg width="226" height="53" viewBox="0 0 226 53" fill="none" xmlns="http://www.w3.org/2000/svg">
<path fill-rule="evenodd" clip-rule="evenodd" d="M225.761 11.837C226.521 9.71615 225.408 7.38422 223.276 6.62846L205.243 0.237645C203.111 -0.518113 200.766 0.588492 200.006 2.70932L197.87 8.67043C197.11 10.7913 198.223 13.1232 200.355 13.8789L206.855 16.1826L194.591 50.4117C194.49 50.6945 194.638 51.0054 194.922 51.1062L198.826 52.4898C199.111 52.5906 199.423 52.4431 199.525 52.1603L200.009 50.8077L206.106 52.9683C206.39 53.0691 206.703 52.9215 206.804 52.6388L208.16 48.854C208.262 48.5712 208.113 48.2603 207.829 48.1595L201.732 45.9989L211.789 17.9312L218.388 20.2698C220.52 21.0255 222.865 19.9189 223.625 17.7981L225.761 11.837ZM220.261 11.6672C220.363 11.3845 220.214 11.0735 219.93 10.9728L205.073 5.70721C204.788 5.60645 204.476 5.75399 204.374 6.03677L203.37 8.84016C203.268 9.12294 203.417 9.43386 203.701 9.53463L218.559 14.8002C218.843 14.901 219.156 14.7534 219.257 14.4706L220.261 11.6672Z" fill="#626262"/>
<path fill-rule="evenodd" clip-rule="evenodd" d="M67.8716 16.5587C67.9563 16.3794 68.1554 16.2626 68.3763 16.2626H75.229C75.4499 16.2626 75.649 16.3794 75.7337 16.5587L87.4909 41.4316C87.6613 41.792 87.3968 42.2064 86.9963 42.2064L80.014 42.2064C79.7982 42.2064 79.6025 42.08 79.5148 41.8839L77.6159 37.6422H65.9894L64.0825 41.9019C64.0002 42.0856 63.7985 42.2064 63.5739 42.2064L56.5671 42.2064C56.1773 42.2064 55.9129 41.858 56.0624 41.5416L67.8716 16.5587ZM69.02 30.8721C68.8591 31.2316 69.1237 31.6368 69.5193 31.6368H74.086C74.4816 31.6368 74.7462 31.2316 74.5853 30.8721L72.3019 25.7715C72.1095 25.3416 71.4958 25.3416 71.3034 25.7715L69.02 30.8721Z" fill="#626262"/>
<path d="M31.5625 16.8633C31.5625 16.5316 31.8684 16.2628 32.2457 16.2628H50.8279C51.2052 16.2628 51.5111 16.5316 51.5111 16.8633V21.6677C51.5111 21.9994 51.2052 22.2682 50.8279 22.2682H38.3942V26.2318H50.8279C51.2052 26.2318 51.5111 26.5007 51.5111 26.8324V31.6368C51.5111 31.9684 51.2052 32.2373 50.8279 32.2373H38.3942V36.2009H50.8279C51.2052 36.2009 51.5111 36.4698 51.5111 36.8015V41.6058C51.5111 41.9375 51.2052 42.2064 50.8279 42.2064H32.2457C31.8684 42.2064 31.5625 41.9375 31.5625 41.6058V16.8633Z" fill="#626262"/>
<path d="M116.002 16.2628C115.701 16.2628 115.456 16.4779 115.456 16.7432V41.7259C115.456 41.9913 115.701 42.2064 116.002 42.2064H121.741C122.043 42.2064 122.288 41.9913 122.288 41.7259V34.442L130.973 42.0766C131.075 42.1667 131.214 42.2173 131.359 42.2173L139.475 42.2173C139.962 42.2173 140.205 41.6998 139.861 41.3971L126.011 29.2223L139.909 17.0055C140.172 16.7746 140.092 16.4185 139.823 16.2628H131.109C131.077 16.2809 131.048 16.302 131.02 16.326L122.288 24.0026V16.7432C122.288 16.4779 122.043 16.2628 121.741 16.2628H116.002Z" fill="#626262"/>
<path d="M145.242 16.8633C145.242 16.5316 145.548 16.2628 145.925 16.2628H164.507C164.885 16.2628 165.191 16.5316 165.191 16.8633V21.6677C165.191 21.9994 164.885 22.2682 164.507 22.2682H152.074V26.2318H164.507C164.885 26.2318 165.191 26.5007 165.191 26.8324V31.6368C165.191 31.9684 164.885 32.2373 164.507 32.2373H152.074V36.2009H164.507C164.885 36.2009 165.191 36.4698 165.191 36.8015V41.6058C165.191 41.9375 164.885 42.2064 164.507 42.2064H145.925C145.548 42.2064 145.242 41.9375 145.242 41.6058V16.8633Z" fill="#626262"/>
<path d="M99.7429 16.2629H92.9112V42.2174L110.674 42.2173V36.2383H99.7429V16.2629Z" fill="#626262"/>
<path fill-rule="evenodd" clip-rule="evenodd" d="M0.546536 16.2629C0.244693 16.2629 0 16.5062 0 16.8064V41.6738C0 41.974 0.244693 42.2174 0.546537 42.2174H6.28517C6.58701 42.2174 6.83171 41.974 6.83171 41.6738V31.403H10.1139L17.0541 41.9711C17.1551 42.1247 17.3272 42.2174 17.5117 42.2174H23.8655C24.2981 42.2174 24.5592 41.7413 24.325 41.3796L17.8662 31.403H19.5387C22.4817 31.403 24.8674 29.0303 24.8674 26.1034V21.5625C24.8674 18.6356 22.4817 16.2629 19.5387 16.2629H0.546536ZM7.37824 22.2708C7.0764 22.2708 6.83171 22.5142 6.83171 22.8144V24.8515C6.83171 25.1516 7.0764 25.395 7.37824 25.395H17.4892C17.791 25.395 18.0357 25.1516 18.0357 24.8515V22.8144C18.0357 22.5142 17.791 22.2708 17.4892 22.2708H7.37824Z" fill="#626262"/>
<path d="M170.655 16.2628C170.237 16.2628 169.975 16.6614 170.182 16.9818L178.686 30.1188L178.708 30.1076V41.7367C178.708 42.0022 178.952 42.2174 179.253 42.2174H184.975C185.276 42.2174 185.52 42.0022 185.52 41.7367V30.0018L193.948 16.9818C194.155 16.6614 193.893 16.2628 193.475 16.2628H187.229C187.038 16.2628 186.86 16.3515 186.762 16.4964L182.065 23.4078L177.368 16.4964C177.27 16.3515 177.092 16.2628 176.901 16.2628H170.655Z" fill="#626262"/>
</svg>
