<svg width="198" height="54" viewBox="0 0 198 54" fill="none" xmlns="http://www.w3.org/2000/svg">
<path fill-rule="evenodd" clip-rule="evenodd" d="M197.796 11.5607C198.444 9.76213 197.496 7.78455 195.678 7.14363L175.99 0.201533C174.172 -0.439383 172.173 0.49907 171.525 2.29762L168.885 9.62814C168.238 11.4267 169.186 13.4043 171.004 14.0452L178.281 16.6112L165.74 51.4335C165.654 51.6733 165.78 51.937 166.023 52.0225L170.178 53.4876C170.42 53.573 170.687 53.4479 170.773 53.2081L171.298 51.75L177.603 53.9731C177.846 54.0586 178.112 53.9335 178.198 53.6937L179.643 49.6819C179.73 49.4421 179.603 49.1784 179.361 49.093L173.056 46.8698L183.314 18.3858L190.692 20.9873C192.51 21.6282 194.509 20.6898 195.156 18.8912L197.796 11.5607ZM191.987 11.9435C192.073 11.7037 191.947 11.44 191.704 11.3546L176.376 5.95005C176.134 5.86459 175.868 5.98972 175.781 6.22953L174.695 9.2453C174.609 9.48511 174.735 9.74879 174.978 9.83424L190.305 15.2388C190.548 15.3242 190.814 15.1991 190.901 14.9593L191.987 11.9435Z" fill="#5A9CFF"/>
<path fill-rule="evenodd" clip-rule="evenodd" d="M57.8528 18.4216C57.9251 18.2695 58.0948 18.1705 58.283 18.1705H64.1243C64.3125 18.1705 64.4823 18.2695 64.5545 18.4216L74.5761 39.5149C74.7214 39.8206 74.4959 40.1719 74.1545 40.1719L68.2029 40.172C68.0189 40.172 67.8522 40.0648 67.7774 39.8985L66.1588 36.3013H56.2485L54.6231 39.9137C54.553 40.0695 54.3811 40.172 54.1896 40.172L48.2171 40.1719C47.8848 40.1719 47.6594 39.8765 47.7868 39.6082L57.8528 18.4216ZM58.8318 30.56C58.6946 30.8649 58.9201 31.2084 59.2574 31.2084H63.1499C63.4872 31.2084 63.7127 30.8649 63.5755 30.56L61.6292 26.2345C61.4652 25.8698 60.9421 25.8698 60.7781 26.2345L58.8318 30.56Z" fill="#252525"/>
<path d="M26.9035 18.6799C26.9035 18.3986 27.1642 18.1706 27.4858 18.1706H43.325C43.6467 18.1706 43.9074 18.3986 43.9074 18.6799V22.7542C43.9074 23.0355 43.6467 23.2635 43.325 23.2635H32.7267V26.6248H43.325C43.6467 26.6248 43.9074 26.8529 43.9074 27.1341V31.2084C43.9074 31.4897 43.6467 31.7177 43.325 31.7177H32.7267V35.0791H43.325C43.6467 35.0791 43.9074 35.3071 43.9074 35.5883V39.6627C43.9074 39.9439 43.6467 40.172 43.325 40.172H27.4858C27.1642 40.172 26.9035 39.9439 26.9035 39.6627V18.6799Z" fill="#252525"/>
<path d="M98.8789 18.1706C98.6217 18.1706 98.4131 18.353 98.4131 18.5781V39.7645C98.4131 39.9895 98.6217 40.172 98.8789 40.172H103.77C104.028 40.172 104.236 39.9895 104.236 39.7645V33.5874L111.639 40.0619C111.727 40.1383 111.845 40.1813 111.969 40.1813L118.886 40.1812C119.301 40.1812 119.509 39.7423 119.216 39.4857L107.41 29.1609L119.257 18.8005C119.48 18.6046 119.413 18.3027 119.183 18.1706H111.756C111.729 18.186 111.703 18.2039 111.68 18.2242L104.236 24.7343V18.5781C104.236 18.353 104.028 18.1706 103.77 18.1706H98.8789Z" fill="#252525"/>
<path d="M123.802 18.6799C123.802 18.3986 124.063 18.1706 124.385 18.1706H140.224C140.546 18.1706 140.806 18.3986 140.806 18.6799V22.7542C140.806 23.0355 140.546 23.2635 140.224 23.2635H129.626V26.6248H140.224C140.546 26.6248 140.806 26.8529 140.806 27.1341V31.2084C140.806 31.4897 140.546 31.7177 140.224 31.7177H129.626V35.0791H140.224C140.546 35.0791 140.806 35.3071 140.806 35.5883V39.6627C140.806 39.9439 140.546 40.172 140.224 40.172H124.385C124.063 40.172 123.802 39.9439 123.802 39.6627V18.6799Z" fill="#252525"/>
<path d="M85.0196 18.1707H79.1963V40.1813L94.3368 40.1813V35.1108H85.0196V18.1707Z" fill="#252525"/>
<path fill-rule="evenodd" clip-rule="evenodd" d="M0.465861 18.1707C0.208573 18.1707 0 18.3771 0 18.6317V39.7203C0 39.9749 0.208573 40.1813 0.465861 40.1813H5.3574C5.61469 40.1813 5.82326 39.9749 5.82326 39.7203V31.0102H8.62093L14.5367 39.9724C14.6228 40.1027 14.7694 40.1813 14.9268 40.1813H20.3426C20.7114 40.1813 20.9339 39.7775 20.7343 39.4708L15.229 31.0102H16.6545C19.1631 31.0102 21.1967 28.998 21.1967 26.5159V22.665C21.1967 20.1829 19.1631 18.1707 16.6545 18.1707H0.465861ZM6.28912 23.2657C6.03183 23.2657 5.82326 23.4721 5.82326 23.7267V25.4542C5.82326 25.7088 6.03183 25.9152 6.28912 25.9152H14.9075C15.1648 25.9152 15.3734 25.7088 15.3734 25.4542V23.7267C15.3734 23.4721 15.1648 23.2657 14.9075 23.2657H6.28912Z" fill="#252525"/>
<path d="M145.464 18.1707C145.108 18.1707 144.884 18.5087 145.061 18.7804L152.309 29.9211L152.328 29.9116V39.7737C152.328 39.9988 152.536 40.1813 152.793 40.1813H157.67C157.927 40.1813 158.135 39.9988 158.135 39.7737V29.822L165.319 18.7804C165.496 18.5087 165.272 18.1707 164.915 18.1707H159.592C159.428 18.1707 159.277 18.2459 159.193 18.3687L155.19 24.23L151.186 18.3687C151.102 18.2459 150.951 18.1707 150.788 18.1707H145.464Z" fill="#252525"/>
</svg>
