<svg width="19" height="19" viewBox="0 0 19 19" fill="none" xmlns="http://www.w3.org/2000/svg">
<path d="M18.9914 2.00406C19.0282 1.78259 18.9452 1.55814 18.773 1.4141C18.6007 1.27007 18.3651 1.22799 18.1536 1.30351L0.420326 7.63684C0.181398 7.72217 0.0164498 7.94186 0.00115736 8.1951C-0.014135 8.44835 0.123179 8.68629 0.350104 8.79974L5.41677 11.3331C5.62005 11.4347 5.86221 11.4196 6.05131 11.2936L10.2571 8.48969L7.73879 11.6376C7.6279 11.7762 7.58026 11.955 7.6075 12.1304C7.63473 12.3059 7.73433 12.4618 7.88202 12.5602L15.4821 17.6269C15.6608 17.7461 15.8879 17.7665 16.0851 17.6811C16.2824 17.5957 16.4227 17.4161 16.4581 17.2041L18.9914 2.00406Z" fill="#646464"/>
</svg>
