<svg width="21" height="21" viewBox="0 0 21 21" fill="none" xmlns="http://www.w3.org/2000/svg">
<path d="M11.866 10.0204C11.5379 9.89702 11.5379 9.42583 11.5175 9.09771C11.4355 7.92893 11.8456 6.14458 11.3534 5.38596C11.005 4.93446 9.32301 4.9758 8.29795 5.03749C8.01051 5.07883 7.66204 5.13986 7.41594 5.26324C7.16985 5.38661 6.92376 5.59136 6.92376 5.77577C6.92376 6.04221 7.53932 6.00152 7.76441 6.34999C8.01051 6.71946 8.01051 7.51877 8.01051 8.17502C8.01051 8.93364 7.88713 9.93902 7.58001 9.97971C7.10816 10.0001 6.84173 9.52821 6.59563 9.17974C6.10344 8.50314 5.61126 7.66183 5.24179 6.84152C5.05738 6.41102 4.95435 5.93918 4.68791 5.75477C4.27776 5.46733 3.53948 5.44699 2.82154 5.46733C2.16529 5.48768 1.2216 5.40564 1.03719 5.79546C0.893475 6.22596 1.20126 6.63611 1.36532 6.98524C2.20598 8.81027 3.10832 10.4102 4.21607 11.9275C5.24179 13.3423 6.20516 14.4704 8.09188 15.065C8.62541 15.2291 10.963 15.7009 11.4348 15.065C11.5989 14.8189 11.5582 14.265 11.6402 13.8549C11.7223 13.4447 11.8246 13.0346 12.2144 13.0142C12.5426 12.9939 12.727 13.2806 12.9324 13.4861C13.1581 13.7118 13.3425 13.8962 13.5066 14.1016C13.8964 14.4914 14.3066 15.0243 14.7988 15.2297C15.4754 15.5171 16.5214 15.4351 17.5058 15.3938C18.3058 15.3734 18.88 15.2094 18.9417 14.7375C18.983 14.3681 18.5722 13.8352 18.3261 13.5274C17.7105 12.7688 17.4238 12.543 16.7262 11.8454C16.4184 11.5376 16.0286 11.2095 16.0286 10.8407C16.0082 10.615 16.1926 10.4102 16.3567 10.1845C17.0746 9.11805 17.7926 8.35943 18.4488 7.25168C18.6332 6.92355 19.0644 6.16493 18.9003 5.79546C18.7159 5.3853 17.6902 5.50802 17.0543 5.50802C16.234 5.50802 15.1676 5.44633 14.9622 5.61039C14.5724 5.87683 14.4083 6.30799 14.2239 6.71814C13.8137 7.66183 13.2599 8.62521 12.6856 9.34314C12.4802 9.58924 12.0911 10.1018 11.8653 10.0197L11.866 10.0204Z" fill="#646464"/>
</svg>
