<svg width="21" height="21" viewBox="0 0 21 21" fill="none" xmlns="http://www.w3.org/2000/svg">
<g clip-path="url(#clip0_2_73)">
<path fill-rule="evenodd" clip-rule="evenodd" d="M8.38786 13.2153V7.32292C10.4797 8.30722 12.0998 9.25807 14.0159 10.2832C12.4355 11.1597 10.4797 12.1431 8.38786 13.2153ZM20.0456 4.39235C19.6847 3.91695 19.0697 3.5469 18.415 3.42438C16.4905 3.05893 4.48453 3.05789 2.56111 3.42438C2.03606 3.52281 1.56853 3.76072 1.1669 4.13036C-0.525381 5.70106 0.00489949 14.1242 0.412805 15.4886C0.584333 16.0792 0.806075 16.5051 1.08533 16.7847C1.44512 17.1543 1.93774 17.4089 2.50358 17.523C4.08813 17.8507 12.2514 18.034 18.3815 17.5722C18.9463 17.4738 19.4462 17.2111 19.8405 16.8257C21.4052 15.2613 21.2986 6.36514 20.0456 4.39235Z" fill="#626262"/>
</g>
<defs>
<clipPath id="clip0_2_73">
<rect width="21" height="21" fill="white"/>
</clipPath>
</defs>
</svg>
