<svg width="130" height="130" viewBox="0 0 130 130" fill="none" xmlns="http://www.w3.org/2000/svg">
<g clip-path="url(#clip0_2_170)">
<path fill-rule="evenodd" clip-rule="evenodd" d="M52.8125 12.1875V24.375H65V12.1875H52.8125ZM60.9375 16.25H56.875V20.3125H60.9375V16.25Z" fill="#252525"/>
<path fill-rule="evenodd" clip-rule="evenodd" d="M12.1875 12.1875V24.375H24.375V12.1875H12.1875ZM20.3125 20.3125H16.25V16.25H20.3125V20.3125Z" fill="#252525"/>
<path fill-rule="evenodd" clip-rule="evenodd" d="M32.5 12.1875V24.375H44.6875V12.1875H32.5ZM40.625 20.3125H36.5625V16.25H40.625V20.3125Z" fill="#252525"/>
<path fill-rule="evenodd" clip-rule="evenodd" d="M12.1875 32.5V44.6875H24.375V32.5H12.1875ZM20.3125 40.625H16.25V36.5625H20.3125V40.625Z" fill="#252525"/>
<path fill-rule="evenodd" clip-rule="evenodd" d="M32.5 32.5V44.6875H44.6875V32.5H32.5ZM40.625 40.625H36.5625V36.5625H40.625V40.625Z" fill="#252525"/>
<path fill-rule="evenodd" clip-rule="evenodd" d="M12.1875 52.8125V65H24.375V52.8125H12.1875ZM20.3125 60.9375H16.25V56.875H20.3125V60.9375Z" fill="#252525"/>
<path fill-rule="evenodd" clip-rule="evenodd" d="M32.5 52.8125V65H44.6875V52.8125H32.5ZM40.625 60.9375H36.5625V56.875H40.625V60.9375Z" fill="#252525"/>
<path fill-rule="evenodd" clip-rule="evenodd" d="M12.1875 73.125V85.3125H24.375V73.125H12.1875ZM20.3125 81.25H16.25V77.1875H20.3125V81.25Z" fill="#252525"/>
<path fill-rule="evenodd" clip-rule="evenodd" d="M32.5 73.125V85.3125H44.6875V73.125H32.5ZM40.625 81.25H36.5625V77.1875H40.625V81.25Z" fill="#252525"/>
<path fill-rule="evenodd" clip-rule="evenodd" d="M12.1875 93.4375V105.625H24.375V93.4375H12.1875ZM20.3125 101.562H16.25V97.5H20.3125V101.562Z" fill="#252525"/>
<path fill-rule="evenodd" clip-rule="evenodd" d="M32.5 93.4375V105.625H44.6875V93.4375H32.5ZM40.625 101.562H36.5625V97.5H40.625V101.562Z" fill="#252525"/>
<path fill-rule="evenodd" clip-rule="evenodd" d="M65 44.6875H77.1875V56.875H65V44.6875ZM69.0625 48.75H73.125V52.8125H69.0625V48.75Z" fill="#252525"/>
<path fill-rule="evenodd" clip-rule="evenodd" d="M105.625 44.6875V56.875H117.812V44.6875H105.625ZM113.75 48.75H109.688V52.8125H113.75V48.75Z" fill="#252525"/>
<path fill-rule="evenodd" clip-rule="evenodd" d="M85.3125 44.6875H97.5V56.875H85.3125V44.6875ZM89.375 48.75H93.4375V52.8125H89.375V48.75Z" fill="#252525"/>
<path fill-rule="evenodd" clip-rule="evenodd" d="M65 65V77.1875H77.1875V65H65ZM73.125 69.0625H69.0625V73.125H73.125V69.0625Z" fill="#252525"/>
<path fill-rule="evenodd" clip-rule="evenodd" d="M105.625 65H117.812V77.1875H105.625V65ZM109.688 69.0625H113.75V73.125H109.688V69.0625Z" fill="#252525"/>
<path fill-rule="evenodd" clip-rule="evenodd" d="M85.3125 65V77.1875H97.5V65H85.3125ZM93.4375 69.0625H89.375V73.125H93.4375V69.0625Z" fill="#252525"/>
<path fill-rule="evenodd" clip-rule="evenodd" d="M65 85.3125H77.1875V97.5H65V85.3125ZM69.0625 89.375H73.125V93.4375H69.0625V89.375Z" fill="#252525"/>
<path fill-rule="evenodd" clip-rule="evenodd" d="M105.625 85.3125V97.5H117.812V85.3125H105.625ZM113.75 89.375H109.688V93.4375H113.75V89.375Z" fill="#252525"/>
<path fill-rule="evenodd" clip-rule="evenodd" d="M85.3125 85.3125H97.5V97.5H85.3125V85.3125ZM89.375 89.375H93.4375V93.4375H89.375V89.375Z" fill="#252525"/>
<path fill-rule="evenodd" clip-rule="evenodd" d="M65 105.625V117.812H77.1875V105.625H65ZM73.125 109.688H69.0625V113.75H73.125V109.688Z" fill="#252525"/>
<path fill-rule="evenodd" clip-rule="evenodd" d="M105.625 105.625H117.812V117.812H105.625V105.625ZM109.688 109.688H113.75V113.75H109.688V109.688Z" fill="#252525"/>
<path fill-rule="evenodd" clip-rule="evenodd" d="M85.3125 105.625V117.812H97.5V105.625H85.3125ZM93.4375 109.688H89.375V113.75H93.4375V109.688Z" fill="#252525"/>
<path fill-rule="evenodd" clip-rule="evenodd" d="M52.8125 117.812H0V0H77.1875V32.5H130V130H52.8125V117.812ZM4.0625 4.0625H73.125V32.5H52.8125V113.75H4.0625V4.0625ZM56.875 36.5625H125.938V125.938H56.875V36.5625Z" fill="#252525"/>
<path d="M20.3125 62.7055L102.718 40.6249L110.078 68.0936L27.6727 90.1741L20.3125 62.7055Z" fill="#F8F8F8"/>
<path fill-rule="evenodd" clip-rule="evenodd" d="M31.4612 68.9183L34.6813 80.936L37.0101 80.312L36.0717 76.8097L38.9022 76.0512C39.0693 76.0065 39.2318 75.9586 39.3897 75.9086L42.8862 78.7373L45.394 78.0654L41.4651 74.904C41.5167 74.8666 41.5675 74.8284 41.6171 74.7902C42.3252 74.2324 42.8102 73.5812 43.0714 72.8366C43.3294 72.0801 43.3404 71.2615 43.1043 70.3804C42.8683 69.4988 42.4495 68.7956 41.8478 68.2699C41.2462 67.7442 40.4991 67.4168 39.6069 67.2876C38.7267 67.1556 37.7312 67.2384 36.6205 67.5358L31.4612 68.9183ZM35.5795 74.9726L38.3025 74.243C39.3296 73.968 40.0431 73.5495 40.4432 72.9885C40.8553 72.4242 40.9602 71.7645 40.7574 71.0092C40.5522 70.2422 40.1315 69.7231 39.4956 69.4521C38.8716 69.1775 38.0461 69.1779 37.019 69.4533L34.2961 70.1829L35.5795 74.9726Z" fill="#252525"/>
<path d="M54.4566 70.0802L55.3447 73.3935L62.4207 71.4976L62.922 73.3688L53.5169 75.8887L50.297 63.8715L59.4514 61.4185L59.9527 63.2897L53.1273 65.1186L53.9646 68.2431L60.0194 66.6205L60.5117 68.4576L54.4566 70.0802Z" fill="#252525"/>
<path d="M71.251 71.1373L68.0306 59.1196L69.9477 58.6061L79.0424 64.8895L76.8625 56.7532L79.1732 56.134L82.3936 68.1513L80.4765 68.6648L71.3818 62.3818L73.5617 70.5177L71.251 71.1373Z" fill="#252525"/>
<path d="M91.3161 54.9043L94.0302 65.0333L96.3588 64.4093L93.6447 54.2803L97.801 53.1667L97.2948 51.2781L86.6539 54.1295L87.1597 56.0178L91.3161 54.9043Z" fill="#252525"/>
<path fill-rule="evenodd" clip-rule="evenodd" d="M20.3125 62.7055L102.718 40.6249L110.078 68.0936L27.6727 90.1741L20.3125 62.7055ZM24.8154 65.1792L100.055 45.0186L105.575 65.62L30.3355 85.7805L24.8154 65.1792Z" fill="#252525"/>
</g>
<defs>
<clipPath id="clip0_2_170">
<rect width="130" height="130" fill="white"/>
</clipPath>
</defs>
</svg>
