<svg width="130" height="130" viewBox="0 0 130 130" fill="none" xmlns="http://www.w3.org/2000/svg">
<path d="M97.5 73.125H89.375V81.25H97.5V73.125Z" fill="#252525"/>
<path fill-rule="evenodd" clip-rule="evenodd" d="M125.123 36.5625L127.594 27.3378L117.812 24.7167V20.3125H101.376L25.5684 0L20.1256 20.3125H12.1875V36.5625H0V117.812H130V36.5625H125.123ZM122.619 30.2104L117.812 28.9226V36.5625H120.917L122.619 30.2104ZM4.0625 40.625V113.75H125.938V89.375H81.25V65H125.938V40.625H4.0625ZM16.25 24.375V36.5625H113.75V24.375H16.25ZM85.6793 20.3125H24.3315L28.441 4.97551L85.6793 20.3125ZM125.938 69.0625V85.3125H85.3125V69.0625H125.938Z" fill="#252525"/>
<path d="M76.0398 69.0625L67.4221 77.6803L86.0941 96.3523L67.4221 115.024L76.0398 123.642L94.7119 104.97L113.384 123.642L122.002 115.024L103.33 96.3523L122.002 77.6803L113.384 69.0625L94.7119 87.7346L76.0398 69.0625Z" fill="#5A9CFF"/>
<path d="M76.0398 69.0625L67.4221 77.6803L86.0941 96.3523L67.4221 115.024L76.0398 123.642L94.7119 104.97L113.384 123.642L122.002 115.024L103.33 96.3523L122.002 77.6803L113.384 69.0625L94.7119 87.7346L76.0398 69.0625Z" fill="#5A9CFF"/>
<path d="M67.4221 77.6803L76.0398 69.0625L94.7119 87.7346L113.384 69.0625L122.002 77.6803L103.33 96.3523L122.002 115.024L113.384 123.642L94.7119 104.97L76.0398 123.642L67.4221 115.024L86.0941 96.3523L67.4221 77.6803Z" stroke="#252525" stroke-width="3"/>
</svg>
