<svg width="130" height="130" viewBox="0 0 130 130" fill="none" xmlns="http://www.w3.org/2000/svg">
<g clip-path="url(#clip0_2_722)">
<path fill-rule="evenodd" clip-rule="evenodd" d="M65 0L130 32.5H0L65 0ZM17.209 28.4375L65 4.542L112.791 28.4375H17.209ZM36.5625 36.5625V97.5H20.3125V36.5625H36.5625ZM32.5 40.625V93.4375H24.375V40.625H32.5ZM8.125 113.75V101.562H75.181L71.1185 105.625H12.1875V109.688H67.7881L71.8506 113.75H8.125ZM75.9131 117.812L76.0398 117.939L76.1666 117.812H113.257L113.384 117.939L113.511 117.812H130V130H0V117.812H75.9131ZM117.573 113.75H121.875V109.448L117.573 113.75ZM121.875 109.195V101.562H114.243L121.875 109.195ZM92.4166 101.562H97.0072L101.07 105.625H88.3541L92.4166 101.562ZM84.2916 109.688L80.2291 113.75H109.195L105.132 109.688H84.2916ZM109.688 97.0072V84.2916L105.625 88.3541V92.9447L109.688 97.0072ZM105.625 71.1185V40.625H97.5V79.2435L94.7119 82.0316L93.4375 80.7572V36.5625H109.688V67.056L105.625 71.1185ZM85.3125 72.6322V36.5625H69.0625V70.3369L73.125 66.2744V40.625H81.25V68.5697L85.3125 72.6322ZM73.125 77.6803V93.4375H81.25V85.8053L85.3125 89.8678V91.431L79.2435 97.5H69.0625V73.6178L73.125 77.6803ZM125.938 125.938V121.875H4.0625V125.938H125.938ZM60.9375 36.5625V97.5H44.6875V36.5625H60.9375ZM56.875 40.625V93.4375H48.75V40.625H56.875Z" fill="#252525"/>
<path d="M76.0398 63.3596L67.4221 71.9774L86.0941 90.6495L67.4221 109.322L76.0398 117.939L94.7119 99.2672L113.384 117.939L122.002 109.322L103.33 90.6495L122.002 71.9774L113.384 63.3596L94.7119 82.0317L76.0398 63.3596Z" fill="#5A9CFF"/>
<path d="M76.0398 63.3596L67.4221 71.9774L86.0941 90.6495L67.4221 109.322L76.0398 117.939L94.7119 99.2672L113.384 117.939L122.002 109.322L103.33 90.6495L122.002 71.9774L113.384 63.3596L94.7119 82.0317L76.0398 63.3596Z" fill="#5A9CFF"/>
<path d="M67.4221 71.9774L76.0398 63.3596L94.7119 82.0317L113.384 63.3596L122.002 71.9774L103.33 90.6495L122.002 109.322L113.384 117.939L94.7119 99.2672L76.0398 117.939L67.4221 109.322L86.0941 90.6495L67.4221 71.9774Z" stroke="#252525" stroke-width="3"/>
</g>
<defs>
<clipPath id="clip0_2_722">
<rect width="130" height="130" fill="white"/>
</clipPath>
</defs>
</svg>
