<svg width="130" height="130" viewBox="0 0 130 130" fill="none" xmlns="http://www.w3.org/2000/svg">
<g clip-path="url(#clip0_2_714)">
<path d="M85.3125 16.25H12.1875V20.3125H85.3125V16.25Z" fill="#252525"/>
<path d="M85.3125 32.5H12.1875V36.5625H85.3125V32.5Z" fill="#252525"/>
<path d="M85.3125 48.75H12.1875V52.8125H85.3125V48.75Z" fill="#252525"/>
<path d="M85.3125 65H12.1875V69.0625H85.3125V65Z" fill="#252525"/>
<path d="M85.3125 81.25H12.1875V85.3125H85.3125V81.25Z" fill="#252525"/>
<path d="M85.3125 97.5H12.1875V101.562H85.3125V97.5Z" fill="#252525"/>
<path fill-rule="evenodd" clip-rule="evenodd" d="M0 0H97.5V16.25H130V130H40.625V121.875H0V0ZM4.0625 4.0625H93.4375V117.812H4.0625V4.0625ZM44.6875 121.875V125.938H125.938V20.3125H97.5V28.4375H117.812V32.5H97.5V44.6875H117.812V48.75H97.5V60.9375H117.812V65H97.5V77.1875H117.812V81.25H97.5V93.4375H117.812V97.5H97.5V109.688H117.812V113.75H97.5V121.875H44.6875Z" fill="#252525"/>
</g>
<defs>
<clipPath id="clip0_2_714">
<rect width="130" height="130" fill="white"/>
</clipPath>
</defs>
</svg>
