<svg width="130" height="130" viewBox="0 0 130 130" fill="none" xmlns="http://www.w3.org/2000/svg">
<g clip-path="url(#clip0_2_145)">
<path fill-rule="evenodd" clip-rule="evenodd" d="M52.8125 12.1875V24.375H65V12.1875H52.8125ZM60.9375 16.25H56.875V20.3125H60.9375V16.25Z" fill="#252525"/>
<path fill-rule="evenodd" clip-rule="evenodd" d="M12.1875 12.1875V24.375H24.375V12.1875H12.1875ZM20.3125 20.3125H16.25V16.25H20.3125V20.3125Z" fill="#252525"/>
<path fill-rule="evenodd" clip-rule="evenodd" d="M32.5 12.1875V24.375H44.6875V12.1875H32.5ZM40.625 20.3125H36.5625V16.25H40.625V20.3125Z" fill="#252525"/>
<path fill-rule="evenodd" clip-rule="evenodd" d="M12.1875 32.5V44.6875H24.375V32.5H12.1875ZM20.3125 40.625H16.25V36.5625H20.3125V40.625Z" fill="#252525"/>
<path fill-rule="evenodd" clip-rule="evenodd" d="M32.5 32.5V44.6875H44.6875V32.5H32.5ZM40.625 40.625H36.5625V36.5625H40.625V40.625Z" fill="#252525"/>
<path fill-rule="evenodd" clip-rule="evenodd" d="M12.1875 52.8125V65H24.375V52.8125H12.1875ZM20.3125 60.9375H16.25V56.875H20.3125V60.9375Z" fill="#252525"/>
<path fill-rule="evenodd" clip-rule="evenodd" d="M32.5 52.8125V65H44.6875V52.8125H32.5ZM40.625 60.9375H36.5625V56.875H40.625V60.9375Z" fill="#252525"/>
<path fill-rule="evenodd" clip-rule="evenodd" d="M12.1875 73.125V85.3125H24.375V73.125H12.1875ZM20.3125 81.25H16.25V77.1875H20.3125V81.25Z" fill="#252525"/>
<path fill-rule="evenodd" clip-rule="evenodd" d="M32.5 73.125V85.3125H44.6875V73.125H32.5ZM40.625 81.25H36.5625V77.1875H40.625V81.25Z" fill="#252525"/>
<path fill-rule="evenodd" clip-rule="evenodd" d="M12.1875 93.4375V105.625H24.375V93.4375H12.1875ZM20.3125 101.562H16.25V97.5H20.3125V101.562Z" fill="#252525"/>
<path fill-rule="evenodd" clip-rule="evenodd" d="M32.5 93.4375V105.625H44.6875V93.4375H32.5ZM40.625 101.562H36.5625V97.5H40.625V101.562Z" fill="#252525"/>
<path fill-rule="evenodd" clip-rule="evenodd" d="M65 44.6875H77.1875V56.875H65V44.6875ZM69.0625 48.75H73.125V52.8125H69.0625V48.75Z" fill="#252525"/>
<path fill-rule="evenodd" clip-rule="evenodd" d="M105.625 44.6875V56.875H117.812V44.6875H105.625ZM113.75 48.75H109.688V52.8125H113.75V48.75Z" fill="#252525"/>
<path fill-rule="evenodd" clip-rule="evenodd" d="M85.3125 44.6875H97.5V56.875H85.3125V44.6875ZM89.375 48.75H93.4375V52.8125H89.375V48.75Z" fill="#252525"/>
<path fill-rule="evenodd" clip-rule="evenodd" d="M65 65V77.1875H77.1875V65H65ZM73.125 69.0625H69.0625V73.125H73.125V69.0625Z" fill="#252525"/>
<path fill-rule="evenodd" clip-rule="evenodd" d="M105.625 65H117.812V77.1875H105.625V65ZM109.688 69.0625H113.75V73.125H109.688V69.0625Z" fill="#252525"/>
<path fill-rule="evenodd" clip-rule="evenodd" d="M85.3125 65V77.1875H97.5V65H85.3125ZM93.4375 69.0625H89.375V73.125H93.4375V69.0625Z" fill="#252525"/>
<path fill-rule="evenodd" clip-rule="evenodd" d="M65 85.3125H77.1875V97.5H65V85.3125ZM69.0625 89.375H73.125V93.4375H69.0625V89.375Z" fill="#252525"/>
<path fill-rule="evenodd" clip-rule="evenodd" d="M105.625 85.3125V97.5H117.812V85.3125H105.625ZM113.75 89.375H109.688V93.4375H113.75V89.375Z" fill="#252525"/>
<path fill-rule="evenodd" clip-rule="evenodd" d="M85.3125 85.3125H97.5V97.5H85.3125V85.3125ZM89.375 89.375H93.4375V93.4375H89.375V89.375Z" fill="#252525"/>
<path fill-rule="evenodd" clip-rule="evenodd" d="M65 105.625V117.812H77.1875V105.625H65ZM73.125 109.688H69.0625V113.75H73.125V109.688Z" fill="#252525"/>
<path fill-rule="evenodd" clip-rule="evenodd" d="M105.625 105.625H117.812V117.812H105.625V105.625ZM109.688 109.688H113.75V113.75H109.688V109.688Z" fill="#252525"/>
<path fill-rule="evenodd" clip-rule="evenodd" d="M85.3125 105.625V117.812H97.5V105.625H85.3125ZM93.4375 109.688H89.375V113.75H93.4375V109.688Z" fill="#252525"/>
<path fill-rule="evenodd" clip-rule="evenodd" d="M52.8125 117.812H0V0H77.1875V32.5H130V130H52.8125V117.812ZM4.0625 4.0625H73.125V32.5H52.8125V113.75H4.0625V4.0625ZM56.875 36.5625H125.938V125.938H56.875V36.5625Z" fill="#252525"/>
</g>
<defs>
<clipPath id="clip0_2_145">
<rect width="130" height="130" fill="white"/>
</clipPath>
</defs>
</svg>
