<svg width="130" height="130" viewBox="0 0 130 130" fill="none" xmlns="http://www.w3.org/2000/svg">
<g clip-path="url(#clip0_2_105)">
<path fill-rule="evenodd" clip-rule="evenodd" d="M65 0L130 32.5H0L65 0ZM17.209 28.4375L65 4.542L112.791 28.4375H17.209Z" fill="#252525"/>
<path fill-rule="evenodd" clip-rule="evenodd" d="M36.5625 36.5625V97.5H20.3125V36.5625H36.5625ZM32.5 40.625V93.4375H24.375V40.625H32.5Z" fill="#252525"/>
<path fill-rule="evenodd" clip-rule="evenodd" d="M8.125 101.562V113.75H121.875V101.562H8.125ZM117.812 109.688V105.625H12.1875V109.688H117.812Z" fill="#252525"/>
<path fill-rule="evenodd" clip-rule="evenodd" d="M0 117.812V130H130V117.812H0ZM125.938 125.938V121.875H4.0625V125.938H125.938Z" fill="#252525"/>
<path fill-rule="evenodd" clip-rule="evenodd" d="M109.688 36.5625H93.4375V97.5H109.688V36.5625ZM105.625 93.4375V40.625H97.5V93.4375H105.625Z" fill="#252525"/>
<path fill-rule="evenodd" clip-rule="evenodd" d="M60.9375 36.5625V97.5H44.6875V36.5625H60.9375ZM56.875 40.625V93.4375H48.75V40.625H56.875Z" fill="#252525"/>
<path fill-rule="evenodd" clip-rule="evenodd" d="M85.3125 36.5625H69.0625V97.5H85.3125V36.5625ZM81.25 93.4375V40.625H73.125V93.4375H81.25Z" fill="#252525"/>
</g>
<defs>
<clipPath id="clip0_2_105">
<rect width="130" height="130" fill="white"/>
</clipPath>
</defs>
</svg>
