<svg width="17" height="16" viewBox="0 0 17 16" fill="none" xmlns="http://www.w3.org/2000/svg">
<path d="M9.26445 0V0.0605469L9.32878 0L11.5188 2.06119L10.3919 3.12186L9.26445 2.06079V7.21948H14.681L13.6831 6.28024L14.81 5.21957L16.9349 7.21948H17V8.71948H16.9357L17 8.78003L14.81 10.8412L13.6831 9.78055L14.8104 8.71948H9.26445V13.8787L10.3275 12.8781L11.4544 13.9388L9.26445 16H7.6707L5.48124 13.9388L6.6082 12.8781L7.6707 13.8781V8.71948H2.25392L3.31694 9.72L2.18998 10.7807L0 8.71948V7.21948L2.18998 5.15881L3.31694 6.21948L2.25444 7.21948H7.6707V2.18259L6.67273 3.12186L5.54583 2.06119L7.6707 0.0612793V0H9.26445Z" fill="#252525"/>
</svg>
