<svg width="130" height="130" viewBox="0 0 130 130" fill="none" xmlns="http://www.w3.org/2000/svg">
<path fill-rule="evenodd" clip-rule="evenodd" d="M15.2941 40.625V73.125H42.0588V40.625H15.2941ZM38.2353 44.6875H19.1176V69.0625H38.2353V44.6875Z" fill="#252525"/>
<path fill-rule="evenodd" clip-rule="evenodd" d="M53.5294 40.625H87.9412V73.125H53.5294V40.625ZM57.3529 44.6875H84.1177V69.0625H57.3529V44.6875Z" fill="#252525"/>
<path fill-rule="evenodd" clip-rule="evenodd" d="M99.4117 40.625V73.125H110.882V40.625H99.4117ZM107.059 44.6875H103.235V69.0625H107.059V44.6875Z" fill="#252525"/>
<path fill-rule="evenodd" clip-rule="evenodd" d="M53.5294 85.3125H87.9412V109.688H53.5294V85.3125ZM57.3529 89.375H84.1177V105.625H57.3529V89.375Z" fill="#252525"/>
<path fill-rule="evenodd" clip-rule="evenodd" d="M15.2941 85.3125V109.688H42.0588V85.3125H15.2941ZM38.2353 89.375H19.1176V105.625H38.2353V89.375Z" fill="#252525"/>
<path fill-rule="evenodd" clip-rule="evenodd" d="M110.882 22.953V0H91.7647V17.5112L44.5173 4.0625L3.55095 27.3843V130H97.7726H110.063H126.45V27.3843L110.882 22.953ZM101.324 24.5596L99.0435 23.7889L44.9896 8.40263L7.37447 29.8165V125.938H93.9491V97.9513H113.886V125.938H122.627V30.5017L110.882 27.1587L101.324 24.5596ZM107.059 21.8646V4.0625H95.5882V18.3575L100.118 19.8891L107.059 21.8646ZM97.7726 130H110.063V102.014H97.7726V130Z" fill="#252525"/>
</svg>
