<svg width="130" height="130" viewBox="0 0 130 130" fill="none" xmlns="http://www.w3.org/2000/svg">
<g clip-path="url(#clip0_2_113)">
<path fill-rule="evenodd" clip-rule="evenodd" d="M77.1875 44.6875H65V56.875H77.1875V44.6875ZM73.125 48.75H69.0625V52.8125H73.125V48.75Z" fill="#252525"/>
<path fill-rule="evenodd" clip-rule="evenodd" d="M105.625 44.6875V56.875H117.812V44.6875H105.625ZM113.75 48.75H109.688V52.8125H113.75V48.75Z" fill="#252525"/>
<path fill-rule="evenodd" clip-rule="evenodd" d="M97.5 44.6875H85.3125V56.875H97.5V44.6875ZM93.4375 48.75H89.375V52.8125H93.4375V48.75Z" fill="#252525"/>
<path fill-rule="evenodd" clip-rule="evenodd" d="M65 65V77.1875H77.1875V65H65ZM73.125 69.0625H69.0625V73.125H73.125V69.0625Z" fill="#252525"/>
<path fill-rule="evenodd" clip-rule="evenodd" d="M117.812 65H105.625V77.1875H117.812V65ZM113.75 69.0625H109.688V73.125H113.75V69.0625Z" fill="#252525"/>
<path fill-rule="evenodd" clip-rule="evenodd" d="M85.3125 65V77.1875H97.5V65H85.3125ZM93.4375 69.0625H89.375V73.125H93.4375V69.0625Z" fill="#252525"/>
<path fill-rule="evenodd" clip-rule="evenodd" d="M77.1875 85.3125H65V97.5H77.1875V85.3125ZM73.125 89.375H69.0625V93.4375H73.125V89.375Z" fill="#252525"/>
<path fill-rule="evenodd" clip-rule="evenodd" d="M105.625 85.3125V97.5H117.812V85.3125H105.625ZM113.75 89.375H109.688V93.4375H113.75V89.375Z" fill="#252525"/>
<path fill-rule="evenodd" clip-rule="evenodd" d="M97.5 85.3125H85.3125V97.5H97.5V85.3125ZM93.4375 89.375H89.375V93.4375H93.4375V89.375Z" fill="#252525"/>
<path fill-rule="evenodd" clip-rule="evenodd" d="M65 105.625V117.812H77.1875V105.625H65ZM73.125 109.688H69.0625V113.75H73.125V109.688Z" fill="#252525"/>
<path fill-rule="evenodd" clip-rule="evenodd" d="M117.812 105.625H105.625V117.812H117.812V105.625ZM113.75 109.688H109.688V113.75H113.75V109.688Z" fill="#252525"/>
<path fill-rule="evenodd" clip-rule="evenodd" d="M85.3125 105.625V117.812H97.5V105.625H85.3125ZM93.4375 109.688H89.375V113.75H93.4375V109.688Z" fill="#252525"/>
<path fill-rule="evenodd" clip-rule="evenodd" d="M12.1875 24.375V12.1875H24.375V24.375H12.1875ZM16.25 20.3125H20.3125V16.25H16.25V20.3125Z" fill="#252525"/>
<path fill-rule="evenodd" clip-rule="evenodd" d="M52.8125 24.375V12.1875H65V24.375H52.8125ZM56.875 16.25H60.9375V20.3125H56.875V16.25Z" fill="#252525"/>
<path fill-rule="evenodd" clip-rule="evenodd" d="M32.5 12.1875V24.375H44.6875V12.1875H32.5ZM40.625 20.3125H36.5625V16.25H40.625V20.3125Z" fill="#252525"/>
<path fill-rule="evenodd" clip-rule="evenodd" d="M12.1875 44.6875V32.5H24.375V44.6875H12.1875ZM16.25 40.625H20.3125V36.5625H16.25V40.625Z" fill="#252525"/>
<path fill-rule="evenodd" clip-rule="evenodd" d="M32.5 32.5V44.6875H44.6875V32.5H32.5ZM40.625 40.625H36.5625V36.5625H40.625V40.625Z" fill="#252525"/>
<path fill-rule="evenodd" clip-rule="evenodd" d="M12.1875 65V52.8125H24.375V65H12.1875ZM16.25 60.9375H20.3125V56.875H16.25V60.9375Z" fill="#252525"/>
<path fill-rule="evenodd" clip-rule="evenodd" d="M32.5 52.8125V65H44.6875V52.8125H32.5ZM40.625 60.9375H36.5625V56.875H40.625V60.9375Z" fill="#252525"/>
<path fill-rule="evenodd" clip-rule="evenodd" d="M12.1875 85.3125V73.125H24.375V85.3125H12.1875ZM16.25 81.25H20.3125V77.1875H16.25V81.25Z" fill="#252525"/>
<path fill-rule="evenodd" clip-rule="evenodd" d="M32.5 73.125V85.3125H44.6875V73.125H32.5ZM40.625 81.25H36.5625V77.1875H40.625V81.25Z" fill="#252525"/>
<path fill-rule="evenodd" clip-rule="evenodd" d="M12.1875 105.625V93.4375H24.375V105.625H12.1875ZM16.25 101.562H20.3125V97.5H16.25V101.562Z" fill="#252525"/>
<path fill-rule="evenodd" clip-rule="evenodd" d="M32.5 93.4375V105.625H44.6875V93.4375H32.5ZM40.625 101.562H36.5625V97.5H40.625V101.562Z" fill="#252525"/>
<path fill-rule="evenodd" clip-rule="evenodd" d="M0 117.812H52.8125V130H130V32.5H98.854L101.562 24.375V20.3125H97.5V16.25H101.562V12.1875H77.1875V0H0V117.812ZM100.583 24.375H93.4379L95.615 30.0315L97.5008 24.3754L100.583 24.375ZM56.875 36.5625V125.938H125.938V36.5625H56.875ZM89.3742 24.3747L92.5023 32.5H77.1875V16.25H93.4375V20.3125H89.375L89.3742 24.3747ZM73.125 4.0625H4.0625V113.75H52.8125V32.5H73.125V4.0625Z" fill="#252525"/>
</g>
<defs>
<clipPath id="clip0_2_113">
<rect width="130" height="130" fill="white"/>
</clipPath>
</defs>
</svg>
