<svg width="130" height="130" viewBox="0 0 130 130" fill="none" xmlns="http://www.w3.org/2000/svg">
<path fill-rule="evenodd" clip-rule="evenodd" d="M126.395 11.4905L114.905 0L16.4903 98.4145V73.3432H0.240266L0.240268 114.664L0 114.905L0.240268 115.145L0.240269 126.156H11.2507L11.4903 126.395L11.7298 126.156H53.0526V109.906H27.9798L126.395 11.4905ZM48.9901 113.968H18.172L120.65 11.4905L114.905 5.74523L12.4278 108.222V77.4057H4.30276V122.093H48.9901V113.968Z" fill="#252525"/>
<path fill-rule="evenodd" clip-rule="evenodd" d="M24.375 8.125C17.644 8.125 12.1875 13.5815 12.1875 20.3125V36.5625C12.1875 43.2937 17.644 48.75 24.375 48.75H40.625C47.3562 48.75 52.8125 43.2937 52.8125 36.5625V20.3125C52.8125 13.5815 47.3562 8.125 40.625 8.125H24.375ZM40.625 12.1875H24.375C19.8877 12.1875 16.25 15.8252 16.25 20.3125V36.5625C16.25 41.0499 19.8877 44.6875 24.375 44.6875H40.625C45.1124 44.6875 48.75 41.0499 48.75 36.5625V20.3125C48.75 15.8252 45.1124 12.1875 40.625 12.1875Z" fill="#252525"/>
<path fill-rule="evenodd" clip-rule="evenodd" d="M77.1875 85.3125C77.1875 78.5813 82.6438 73.125 89.375 73.125H105.625C112.356 73.125 117.812 78.5813 117.812 85.3125V101.562C117.812 108.294 112.356 113.75 105.625 113.75H89.375C82.6438 113.75 77.1875 108.294 77.1875 101.562V85.3125ZM89.375 77.1875H105.625C110.112 77.1875 113.75 80.8251 113.75 85.3125V101.562C113.75 106.05 110.112 109.688 105.625 109.688H89.375C84.8876 109.688 81.25 106.05 81.25 101.562V85.3125C81.25 80.8251 84.8876 77.1875 89.375 77.1875Z" fill="#252525"/>
</svg>
