<svg width="130" height="130" viewBox="0 0 130 130" fill="none" xmlns="http://www.w3.org/2000/svg">
<g clip-path="url(#clip0_2_731)">
<path d="M97.5 80.6897H89.375V89.6552H97.5V80.6897Z" fill="#252525"/>
<path fill-rule="evenodd" clip-rule="evenodd" d="M125.123 40.3448L127.594 30.1658L117.812 27.2736V22.4138H101.376L25.5684 0L20.1256 22.4138H12.1875V40.3448H0V130H130V40.3448H125.123ZM122.619 33.3356L117.812 31.9146V40.3448H120.917L122.619 33.3356ZM4.0625 44.8276V125.517H125.938V98.6207H81.25V71.7241H125.938V44.8276H4.0625ZM16.25 26.8966V40.3448H113.75V26.8966H16.25ZM85.6793 22.4138H24.3315L28.441 5.49021L85.6793 22.4138ZM125.938 76.2069V94.1379H85.3125V76.2069H125.938Z" fill="#252525"/>
</g>
<defs>
<clipPath id="clip0_2_731">
<rect width="130" height="130" fill="white"/>
</clipPath>
</defs>
</svg>
