<?xml version="1.0" standalone="no"?>
<!DOCTYPE svg PUBLIC "-//W3C//DTD SVG 20010904//EN"
 "http://www.w3.org/TR/2001/REC-SVG-20010904/DTD/svg10.dtd">
<svg version="1.0" xmlns="http://www.w3.org/2000/svg"
 width="700.000000pt" height="700.000000pt" viewBox="0 0 700.000000 700.000000"
 preserveAspectRatio="xMidYMid meet">
<metadata>
Created by potrace 1.14, written by Peter Selinger 2001-2017
</metadata>
<g transform="translate(0.000000,700.000000) scale(0.100000,-0.100000)"
fill="#000000" stroke="none">
<path d="M1781 5294 l-21 -27 0 -1767 0 -1767 21 -27 20 -26 444 0 444 0 20
26 c21 26 21 33 21 755 l0 729 228 0 228 0 485 -736 c266 -404 492 -744 502
-755 17 -18 37 -19 502 -19 472 0 486 1 505 20 47 47 51 41 -434 787 l-453
698 166 6 c98 4 193 13 233 22 213 52 399 199 493 391 80 162 80 163 80 656 0
488 0 490 -75 645 -93 192 -277 342 -486 395 -75 19 -117 20 -1490 20 l-1413
0 -20 -26z m2498 -850 c19 -24 21 -40 21 -180 0 -164 -7 -195 -47 -213 -17 -8
-236 -11 -739 -11 -757 0 -760 0 -778 45 -3 9 -6 89 -6 178 0 151 1 162 22
184 l21 23 743 0 743 0 20 -26z"/>
</g>
</svg>
